<svg width="48" height="58" viewBox="0 0 48 58" fill="none" xmlns="http://www.w3.org/2000/svg"><mask id="mask0_266_18072" style="mask-type:alpha" maskUnits="userSpaceOnUse" x="10" y="36" width="28" height="22"><path d="M10.2881 38.3566C10.2881 37.3469 11.1066 36.5283 12.1164 36.5283H35.8838C36.8935 36.5283 37.7121 37.3469 37.7121 38.3566V55.4654C37.7121 56.7157 36.4851 57.5971 35.3002 57.198L24.0723 53.4158C23.6792 53.2834 23.2528 53.2886 22.863 53.4305L12.742 57.1167C11.5495 57.551 10.2881 56.668 10.2881 55.3988V38.3566Z" fill="#7D7272"/></mask><g mask="url(#mask0_266_18072)"><rect x="10.2881" y="36.5283" width="5.4848" height="21.4821" fill="#D18448"/><rect x="15.7729" y="36.5283" width="5.4848" height="21.4821" fill="#994100"/><rect x="21.2578" y="36.5283" width="5.4848" height="21.4821" fill="#D18448"/><rect x="26.7427" y="36.5283" width="5.4848" height="21.4821" fill="#994100"/><rect x="32.2271" y="36.5283" width="5.4848" height="21.4821" fill="#D18448"/></g><path d="M12.002 3.21886C23.4791 -3.40745 38.1548 0.524896 44.7811 12.002C51.4075 23.4791 47.4751 38.1548 35.998 44.7811C24.5209 51.4075 9.84517 47.4751 3.21886 35.998C-3.40745 24.5209 0.524896 9.84517 12.002 3.21886Z" fill="#D18448"/><path fill-rule="evenodd" clip-rule="evenodd" d="M40.8228 33.7127C35.4587 43.0037 23.5783 46.187 14.2873 40.8228C4.99635 35.4587 1.81302 23.5783 7.17717 14.2873C12.5413 4.99634 24.4217 1.81302 33.7127 7.17717C43.0037 12.5413 46.187 24.4217 40.8228 33.7127ZM44.7811 35.998C38.1548 47.4751 23.4791 51.4075 12.002 44.7811C0.524898 38.1548 -3.40745 23.4791 3.21886 12.002C9.84517 0.524896 24.5209 -3.40745 35.998 3.21886C47.4751 9.84517 51.4075 24.5209 44.7811 35.998Z" fill="#ECAE7D"/><path d="M37.1412 24C37.1412 31.2574 31.2579 37.1407 24.0005 37.1407C16.7431 37.1407 10.8599 31.2574 10.8599 24C10.8599 16.7427 16.7431 10.8594 24.0005 10.8594C31.2579 10.8594 37.1412 16.7427 37.1412 24Z" fill="#ECAE7D"/><path d="M22.3086 22.2746H23.9557C24.3775 22.2746 24.7223 22.201 24.9901 22.0537C25.2646 21.8997 25.4688 21.6854 25.6027 21.4109C25.7366 21.1297 25.8036 20.7983 25.8036 20.4167C25.8036 20.1221 25.74 19.8509 25.6128 19.6032C25.4923 19.3555 25.3048 19.1579 25.0504 19.0107C24.796 18.8567 24.4712 18.7797 24.0762 18.7797C23.8084 18.7797 23.5473 18.8366 23.2929 18.9504C23.0384 19.0575 22.8275 19.2115 22.6601 19.4124C22.4995 19.6132 22.4191 19.8576 22.4191 20.1455H19.0246C19.0246 19.3153 19.2522 18.6056 19.7075 18.0164C20.1695 17.4205 20.7754 16.9652 21.5253 16.6506C22.2819 16.3292 23.0953 16.1685 23.9657 16.1685C25.0035 16.1685 25.9141 16.3292 26.6974 16.6506C27.4808 16.9652 28.09 17.4339 28.5252 18.0566C28.9671 18.6725 29.1881 19.4358 29.1881 20.3464C29.1881 20.8485 29.0709 21.3205 28.8366 21.7624C28.6022 22.2043 28.2742 22.5926 27.8524 22.9274C27.4306 23.2622 26.9351 23.5266 26.366 23.7208C25.8036 23.9083 25.1876 24.002 24.5181 24.002H22.3086V22.2746ZM22.3086 24.7954V23.1082H24.5181C25.2479 23.1082 25.9141 23.1919 26.5166 23.3593C27.1192 23.5199 27.6381 23.761 28.0733 24.0823C28.5085 24.4037 28.8433 24.8021 29.0776 25.2775C29.3119 25.7461 29.4291 26.2851 29.4291 26.8944C29.4291 27.5773 29.2919 28.1866 29.0173 28.7222C28.7428 29.2578 28.3579 29.7098 27.8624 30.078C27.367 30.4462 26.7878 30.7274 26.125 30.9216C25.4621 31.1091 24.7424 31.2028 23.9657 31.2028C23.3565 31.2028 22.7472 31.1225 22.1379 30.9618C21.5286 30.7944 20.9729 30.54 20.4708 30.1985C19.9686 29.8504 19.5636 29.4085 19.2556 28.8728C18.9543 28.3305 18.8037 27.6844 18.8037 26.9346H22.1982C22.1982 27.2425 22.2819 27.5237 22.4492 27.7782C22.6233 28.0259 22.8543 28.2234 23.1422 28.3707C23.4301 28.518 23.7414 28.5916 24.0762 28.5916C24.4913 28.5916 24.8428 28.5146 25.1307 28.3607C25.4253 28.2 25.6496 27.9857 25.8036 27.7179C25.9576 27.4501 26.0346 27.1521 26.0346 26.8241C26.0346 26.3286 25.9509 25.9336 25.7835 25.639C25.6228 25.3444 25.3851 25.1302 25.0705 24.9963C24.7625 24.8624 24.3909 24.7954 23.9557 24.7954H22.3086Z" fill="#994100"/></svg>