<svg width="48" height="58" viewBox="0 0 48 58" fill="none" xmlns="http://www.w3.org/2000/svg"><mask id="mask0_266_17824" style="mask-type:alpha" maskUnits="userSpaceOnUse" x="10" y="36" width="28" height="22"><path d="M10.2881 37.8576C10.2881 36.8478 11.1066 36.0293 12.1164 36.0293H35.8838C36.8935 36.0293 37.7121 36.8478 37.7121 37.8576V54.2396C37.7121 55.6699 36.1437 56.5463 34.9256 55.7967L32.6123 54.3731C32.0869 54.0497 31.4338 54.0132 30.8756 54.2759L24.8298 57.121C24.3077 57.3667 23.7001 57.3515 23.191 57.0799L18.0044 54.3137C17.4667 54.027 16.8214 54.027 16.2837 54.3137L12.9767 56.0775C11.7589 56.727 10.2881 55.8445 10.2881 54.4643V37.8576Z" fill="#D9D9D9"/></mask><g mask="url(#mask0_266_17824)"><rect x="10.2881" y="36.0293" width="5.4848" height="21.4821" fill="#A6AFB9"/><rect x="15.7729" y="36.0293" width="5.4848" height="21.4821" fill="#747B82"/><rect x="21.2578" y="36.0293" width="5.4848" height="21.4821" fill="#A6AFB9"/><rect x="26.7422" y="36.0293" width="5.4848" height="21.4821" fill="#747B82"/><rect x="32.2271" y="36.0293" width="5.4848" height="21.4821" fill="#A6AFB9"/></g><path d="M12.002 3.21886C23.4791 -3.40745 38.1548 0.524896 44.7811 12.002C51.4075 23.4791 47.4751 38.1548 35.998 44.7811C24.5209 51.4075 9.84517 47.4751 3.21886 35.998C-3.40745 24.5209 0.524896 9.84517 12.002 3.21886Z" fill="#A6AFB9"/><path fill-rule="evenodd" clip-rule="evenodd" d="M40.8228 33.7127C35.4587 43.0037 23.5783 46.187 14.2873 40.8228C4.99635 35.4587 1.81302 23.5783 7.17717 14.2873C12.5413 4.99634 24.4217 1.81302 33.7127 7.17717C43.0037 12.5413 46.187 24.4217 40.8228 33.7127ZM44.7811 35.998C38.1548 47.4751 23.4791 51.4075 12.002 44.7811C0.524898 38.1548 -3.40745 23.4791 3.21886 12.002C9.84517 0.524896 24.5209 -3.40745 35.998 3.21886C47.4751 9.84517 51.4075 24.5209 44.7811 35.998Z" fill="#CAD3DE"/><path d="M37.1412 24C37.1412 31.2574 31.2579 37.1407 24.0005 37.1407C16.7431 37.1407 10.8599 31.2574 10.8599 24C10.8599 16.7427 16.7431 10.8594 24.0005 10.8594C31.2579 10.8594 37.1412 16.7427 37.1412 24Z" fill="#CAD3DE"/><path d="M29.4291 28.3908V31.002H19.2255V28.7925L23.9256 23.8514C24.3407 23.376 24.6754 22.9508 24.9299 22.5759C25.1843 22.1943 25.3684 21.8495 25.4822 21.5415C25.6027 21.2335 25.663 20.9556 25.663 20.7079C25.663 20.2861 25.5994 19.9346 25.4722 19.6534C25.3517 19.3655 25.1709 19.1479 24.9299 19.0006C24.6955 18.8533 24.4043 18.7797 24.0561 18.7797C23.708 18.7797 23.4033 18.8801 23.1422 19.081C22.8811 19.2818 22.6769 19.5563 22.5296 19.9045C22.389 20.2526 22.3187 20.6443 22.3187 21.0795H18.9242C18.9242 20.1823 19.1418 19.3622 19.577 18.619C20.0188 17.8758 20.6315 17.2833 21.4148 16.8414C22.1982 16.3928 23.1054 16.1685 24.1365 16.1685C25.2144 16.1685 26.1183 16.3359 26.8481 16.6706C27.5779 17.0054 28.1269 17.4908 28.4951 18.1269C28.87 18.7562 29.0575 19.5161 29.0575 20.4066C29.0575 20.9155 28.9772 21.4042 28.8165 21.8729C28.6558 22.3416 28.4248 22.8069 28.1235 23.2689C27.8222 23.7242 27.454 24.1928 27.0188 24.6749C26.5903 25.1569 26.1015 25.6691 25.5525 26.2115L23.6644 28.3908H29.4291Z" fill="#747B82"/></svg>