<svg width="48" height="58" viewBox="0 0 48 58" fill="none" xmlns="http://www.w3.org/2000/svg"><g opacity="0.8"><mask id="mask0_266_17462" style="mask-type:alpha" maskUnits="userSpaceOnUse" x="8" y="36" width="32" height="22"><path d="M8 36.002V44.802C8 46.2932 9.01992 47.5459 10.4 47.9012V54.4369C10.4 55.8172 11.8707 56.6996 13.0887 56.0502L16.3957 54.2863C16.9332 53.9996 17.5785 53.9996 18.1164 54.2863L23.3027 57.0525C23.8121 57.324 24.4195 57.3393 24.9418 57.0936L30.9875 54.2486C31.5457 53.9859 32.1988 54.0225 32.7242 54.3457L35.0375 55.7693C36.2555 56.5189 37.8238 55.6426 37.8238 54.2123V47.8346C39.0891 47.4076 40 46.2113 40 44.802V36.002H8Z" fill="#D9D9D9"/></mask><g mask="url(#mask0_266_17462)"><rect x="10.2852" y="35.9268" width="5.4848" height="21.4821" fill="#CD7A00"/><rect x="4.80029" y="36.001" width="5.6" height="21.6" fill="#FFBD29"/><rect x="15.77" y="35.9268" width="5.4848" height="21.4821" fill="#FFBD29"/><rect x="21.2549" y="35.9268" width="5.4848" height="21.4821" fill="#CD7A00"/><rect x="26.7393" y="35.9268" width="5.4848" height="21.4821" fill="#FFBD29"/><rect x="32.2241" y="35.9268" width="5.59619" height="21.4821" fill="#CD7A00"/><path d="M37.8242 36.001H43.2004V57.601H37.8242V36.001Z" fill="#FFBD29"/></g></g><path d="M12.002 3.21886C23.4791 -3.40745 38.1548 0.524896 44.7811 12.002C51.4075 23.4791 47.4751 38.1548 35.998 44.7811C24.5209 51.4075 9.84517 47.4751 3.21886 35.998C-3.40745 24.5209 0.524896 9.84517 12.002 3.21886Z" fill="#FFBD29"/><path fill-rule="evenodd" clip-rule="evenodd" d="M40.8228 33.7127C35.4587 43.0037 23.5783 46.187 14.2873 40.8228C4.99635 35.4587 1.81302 23.5783 7.17717 14.2873C12.5413 4.99634 24.4217 1.81302 33.7127 7.17717C43.0037 12.5413 46.187 24.4217 40.8228 33.7127ZM44.7811 35.998C38.1548 47.4751 23.4791 51.4075 12.002 44.7811C0.524898 38.1548 -3.40745 23.4791 3.21886 12.002C9.84517 0.524896 24.5209 -3.40745 35.998 3.21886C47.4751 9.84517 51.4075 24.5209 44.7811 35.998Z" fill="#FFD75F"/><path d="M37.1412 24C37.1412 31.2574 31.2579 37.1407 24.0005 37.1407C16.7431 37.1407 10.8599 31.2574 10.8599 24C10.8599 16.7427 16.7431 10.8594 24.0005 10.8594C31.2579 10.8594 37.1412 16.7427 37.1412 24Z" fill="#FFD75F"/><path d="M26.7175 16.3794V31.002H23.333V20.1957L19.9988 21.1699V18.5989L26.4062 16.3794H26.7175Z" fill="#CD7A00"/></svg>